/* XPM */
static char *test[] = {
/* columns rows colors chars-per-pixel */
"23 20 68 1 ",
"  c None",
". c #868686",
"X c #888888",
"o c #898989",
"O c gray58",
"+ c #9A9A9A",
"@ c #A0A0A0",
"# c gray63",
"$ c gray65",
"% c #A7A7A7",
"& c #A9A9A9",
"* c #AAAAAA",
"= c gray67",
"- c #AEAEAE",
"; c gray69",
": c gray70",
"> c #B6B6B6",
", c gray72",
"< c #B9B9B9",
"1 c #BBBBBB",
"2 c #BCBCBC",
"3 c gray74",
"4 c gray",
"5 c #C0C0C0",
"6 c #C1C1C1",
"7 c gray76",
"8 c #C3C3C3",
"9 c gray77",
"0 c #C5C5C5",
"q c #C6C6C6",
"w c gray78",
"e c #C8C8C8",
"r c gray79",
"t c #CACACA",
"y c #CDCDCD",
"u c #CECECE",
"i c gray81",
"p c #D0D0D0",
"a c #D2D2D2",
"s c LightGray",
"d c gray83",
"f c #D5D5D5",
"g c gray84",
"h c #D7D7D7",
"j c #D8D8D8",
"k c #DADADA",
"l c gainsboro",
"z c #DDDDDD",
"x c gray87",
"c c gray88",
"v c #E1E1E1",
"b c gray89",
"n c #E4E4E4",
"m c #E6E6E6",
"M c #E7E7E7",
"N c gray92",
"B c #ECECEC",
"V c #F3F3F3",
"C c #F4F4F4",
"Z c gray96",
"A c #F6F6F6",
"S c #F8F8F8",
"D c #F9F9F9",
"F c gray98",
"G c gray99",
"H c #FDFDFD",
"J c #FEFEFE",
"K c white",
/* pixels */
"        @7llcad-       ",
"      4a=      O4r     ",
" O+:q=                 ",
"o.        :dllu        ",
"        aculMcdk       ",
" 17rukBKr  KKKK        ",
"qaarq4 7lu SKKK        ",
"          4dSKKK       ",
"           7KqNK       ",
"@$        dKq MK       ",
"$=o     7Zdr  kK       ",
"1      Mc  :  aS       ",
" qruacd   1   ql       ",
"          7            ",
"          d            ",
"          c7           ",
"          qS           ",
"           SKd        1",
"            ZKKKKKKKKZ:",
"             qcVVVVM>  "
};
